<svg xmlns="http://www.w3.org/2000/svg" width="20" height="32" fill="none" viewBox="0 0 20 32"><path fill="#2D3440" d="M19.3243 18.4851C18.9176 9.4097 11.0094.6209 10.6569.2388h-.0451l-.1085-.1242-.1175-.0764h-.5061L9.708 0h-.0452L9.5.1146l-.0994.086h-.0452C9.003.621 1.0948 9.4193.67 18.4851a1.494 1.494 0 0 0 0 .2006v1.0412c.3435 9.8396 9.038 12.247 9.1103 12.2661h.2259a.9188.9188 0 0 0 .226 0c.0813 0 8.7667-2.4742 9.1011-12.2661v-1.0412c0-.0669-.009-.1338-.009-.2006ZM3.056 15.132c1.8053 1.64 3.8464 2.9654 6.0464 3.9262v4.3467c-2.2143-1.156-5.6216-3.2099-6.6248-5.0154a17.5797 17.5797 0 0 1 .5513-3.2575h.0271Zm1.8076-4.8721c1.1822 1.3052 2.6325 2.3054 4.2388 2.9232v3.7639c-2.0194-.9009-3.8593-2.1974-5.4227-3.8212a28.8442 28.8442 0 0 1 1.184-2.8659Zm11.4872 2.8659c-1.5627 1.6247-3.4028 2.9213-5.4227 3.8212v-3.7639c1.5934-.623 3.0309-1.6229 4.2026-2.9232.4559.918.8633 1.862 1.2201 2.8277v.0382Zm-5.4227-1.9679V3.5155a43.2273 43.2273 0 0 1 3.2988 4.9485c-.8717 1.1714-2.014 2.086-3.3169 2.6557l.0181.0382Zm0 12.2661v-4.3658c2.2084-.9522 4.2587-2.2712 6.0735-3.9071a17.5648 17.5648 0 0 1 .5242 3.2671c-.9942 1.7768-4.4015 3.8212-6.6158 4.9675l.0181.0383ZM9.1205 11.1579c-1.309-.577-2.4524-1.5057-3.317-2.694a43.2577 43.2577 0 0 1 3.299-4.9962l.018 7.6902Zm-6.453 10.2504c1.9766 1.6417 4.138 3.0182 6.435 4.0982v4.2033c-1.6432-.7056-3.093-1.8351-4.217-3.2852-1.1241-1.4501-1.8866-3.1747-2.218-5.0163Zm8.2425 8.3111V25.497c2.2988-1.0722 4.4607-2.4459 6.435-4.0887-.3174 1.8486-1.0746 3.5815-2.2003 5.0354-1.1258 1.454-2.5831 2.5813-4.2347 3.2757Z"/></svg>