<svg xmlns="http://www.w3.org/2000/svg" width="14" height="15" fill="none" viewBox="0 0 14 15"><path fill="#2D3440" fill-rule="evenodd" d="M8 1.5246A.6667.6667 0 0 1 8.6667.858h2.6666a1.9997 1.9997 0 0 1 2 2v9.3334a2 2 0 0 1-2 2H8.6667a.6667.6667 0 0 1 0-1.3334h2.6666A.6667.6667 0 0 0 12 12.1913V2.8579a.6664.6664 0 0 0-.6667-.6666H8.6667A.6667.6667 0 0 1 8 1.5246ZM4.8619 3.72a.6667.6667 0 0 1 .9428 0l3.3291 3.329a.6731.6731 0 0 1 .129.177.664.664 0 0 1 .0705.2987.6639.6639 0 0 1-.1998.4759l-3.3288 3.3288a.6667.6667 0 1 1-.9428-.9428L7.057 8.1913H.6668a.6667.6667 0 1 1 0-1.3334H7.057L4.862 4.6627a.6667.6667 0 0 1 0-.9428Z" clip-rule="evenodd"/></svg>