<svg xmlns="http://www.w3.org/2000/svg" width="16" height="32" fill="none" viewBox="0 0 16 32"><path fill="#2D3440" d="M8 0A8.0094 8.0094 0 0 0 .0565 7.0588H0V22.946h16V7.0589h-.0565A8.0097 8.0097 0 0 0 8 0Zm6.1176 21.0635H1.8824v-8.6776a1.6853 1.6853 0 0 0 1.4494.6023c1.214 0 2.0047-.6776 2.0047-1.5341v-.8188a.8097.8097 0 0 1 .4749-.8263.8094.8094 0 0 1 1.1345.8263v3.0965a1.76 1.76 0 0 0 1.9953 1.7223 1.7504 1.7504 0 0 0 1.9953-1.647v-2.08a1.2703 1.2703 0 0 1 1.2659-1.3799 1.2696 1.2696 0 0 1 .9362.4117 1.2704 1.2704 0 0 1 .3296.9682.3869.3869 0 0 0 0 .0847 1.0636 1.0636 0 0 0 .6306.8376V21.12l.0188-.0565ZM6.5882 30.5882a1.4118 1.4118 0 1 0 2.8236 0v-6.7011H6.5882v6.7011Z"/></svg>