<svg xmlns="http://www.w3.org/2000/svg" width="14" height="14" fill="none" viewBox="0 0 14 14"><path fill="#2D3440" fill-rule="evenodd" d="M7.0003 1.3333c-3.1298 0-5.667 2.5372-5.667 5.667 0 3.1297 2.5372 5.6669 5.667 5.6669 3.1297 0 5.6669-2.5372 5.6669-5.667 0-3.1297-2.5372-5.6669-5.667-5.6669ZM0 7.0003C0 3.134 3.1341 0 7.0003 0c3.8661 0 7.0002 3.1341 7.0002 7.0003 0 3.8661-3.1341 7.0002-7.0002 7.0002C3.134 14.0005 0 10.8664 0 7.0003Zm7-.667A.6667.6667 0 0 1 7.6668 7v2.5334a.6667.6667 0 1 1-1.3333 0V7A.6667.6667 0 0 1 7 6.3333ZM7 3.8a.6667.6667 0 1 0 0 1.3333h.0067a.6667.6667 0 0 0 0-1.3333h-.0066Z" clip-rule="evenodd"/></svg>